<mxfile host="app.diagrams.net" modified="2020-04-22T17:45:36.188Z" agent="5.0 (Macintosh; Intel Mac OS X 10_15_4) AppleWebKit/605.1.15 (KHTML, like Gecko) Version/13.1 Safari/605.1.15" etag="PqZ75Ue1MB7rfMsrPN4X" version="13.0.1" type="github" pages="2">
  <diagram name="Chat" id="13e1069c-82ec-6db2-03f1-153e76fe0fe0">
    <mxGraphModel dx="746" dy="471" grid="1" gridSize="10" guides="1" tooltips="1" connect="1" arrows="1" fold="1" page="1" pageScale="1" pageWidth="1100" pageHeight="850" background="#ffffff" math="0" shadow="0">
      <root>
        <mxCell id="0" />
        <mxCell id="1" parent="0" />
        <mxCell id="7baba1c4bc27f4b0-2" value=":Websocket Communicator" style="shape=umlLifeline;perimeter=lifelinePerimeter;whiteSpace=wrap;html=1;container=1;collapsible=0;recursiveResize=0;outlineConnect=0;rounded=1;shadow=0;comic=0;labelBackgroundColor=none;strokeWidth=1;fontFamily=Verdana;fontSize=12;align=center;" parent="1" vertex="1">
          <mxGeometry x="240" y="80" width="100" height="690" as="geometry" />
        </mxCell>
        <mxCell id="7baba1c4bc27f4b0-10" value="" style="html=1;points=[];perimeter=orthogonalPerimeter;rounded=0;shadow=0;comic=0;labelBackgroundColor=none;strokeWidth=1;fontFamily=Verdana;fontSize=12;align=center;" parent="7baba1c4bc27f4b0-2" vertex="1">
          <mxGeometry x="45" y="80" width="10" height="600" as="geometry" />
        </mxCell>
        <mxCell id="7baba1c4bc27f4b0-3" value=":Users/DM" style="shape=umlLifeline;perimeter=lifelinePerimeter;whiteSpace=wrap;html=1;container=1;collapsible=0;recursiveResize=0;outlineConnect=0;rounded=1;shadow=0;comic=0;labelBackgroundColor=none;strokeWidth=1;fontFamily=Verdana;fontSize=12;align=center;" parent="1" vertex="1">
          <mxGeometry x="400" y="80" width="100" height="680" as="geometry" />
        </mxCell>
        <mxCell id="7baba1c4bc27f4b0-13" value="" style="html=1;points=[];perimeter=orthogonalPerimeter;rounded=0;shadow=0;comic=0;labelBackgroundColor=none;strokeWidth=1;fontFamily=Verdana;fontSize=12;align=center;" parent="7baba1c4bc27f4b0-3" vertex="1">
          <mxGeometry x="45" y="90" width="10" height="590" as="geometry" />
        </mxCell>
        <mxCell id="bp0JldhYccg7jiHnCO02-3" value="Senden an Websocket&lt;br&gt;Communicator" style="text;html=1;align=center;verticalAlign=middle;resizable=0;points=[];autosize=1;" parent="1" vertex="1">
          <mxGeometry x="135" y="205" width="140" height="30" as="geometry" />
        </mxCell>
        <mxCell id="DB1RiOV4xSzmY_k622PU-4" value="Abgleich, ob User sich&amp;nbsp;&lt;br&gt;im gleichen Raum&amp;nbsp;&lt;br&gt;befindet oder DM ist" style="text;html=1;align=center;verticalAlign=middle;resizable=0;points=[];autosize=1;" parent="1" vertex="1">
          <mxGeometry x="300" y="230" width="140" height="50" as="geometry" />
        </mxCell>
        <mxCell id="BwiLSka21FznWN3lCEUR-1" value="&lt;b&gt;[User ist nicht im gleichen&lt;br&gt;Raum oder kein DM]&lt;/b&gt;" style="text;html=1;align=center;verticalAlign=middle;resizable=0;points=[];autosize=1;" parent="1" vertex="1">
          <mxGeometry x="285" y="350" width="160" height="30" as="geometry" />
        </mxCell>
        <mxCell id="BwiLSka21FznWN3lCEUR-2" value="" style="html=1;verticalAlign=bottom;endArrow=block;labelBackgroundColor=none;fontFamily=Verdana;fontSize=12;elbow=vertical;edgeStyle=orthogonalEdgeStyle;curved=1;entryX=1;entryY=0.286;entryPerimeter=0;" parent="1" edge="1">
          <mxGeometry relative="1" as="geometry">
            <mxPoint x="295.38" y="430" as="sourcePoint" />
            <mxPoint x="294.9999999999999" y="467.91999999999996" as="targetPoint" />
            <Array as="points">
              <mxPoint x="345.38" y="430" />
              <mxPoint x="345.38" y="468" />
            </Array>
          </mxGeometry>
        </mxCell>
        <mxCell id="BwiLSka21FznWN3lCEUR-3" value="Nachricht nicht an User&amp;nbsp;&lt;br&gt;senden" style="text;html=1;align=center;verticalAlign=middle;resizable=0;points=[];autosize=1;" parent="1" vertex="1">
          <mxGeometry x="295" y="395" width="140" height="30" as="geometry" />
        </mxCell>
        <mxCell id="BwiLSka21FznWN3lCEUR-8" value="" style="endArrow=open;endFill=1;endSize=12;html=1;exitX=1.3;exitY=0.672;exitDx=0;exitDy=0;exitPerimeter=0;" parent="1" source="7baba1c4bc27f4b0-10" edge="1">
          <mxGeometry width="160" relative="1" as="geometry">
            <mxPoint x="295" y="630" as="sourcePoint" />
            <mxPoint x="441" y="563" as="targetPoint" />
            <Array as="points">
              <mxPoint x="400" y="563" />
            </Array>
          </mxGeometry>
        </mxCell>
        <mxCell id="BwiLSka21FznWN3lCEUR-9" value="Senden von Antwort" style="text;html=1;align=center;verticalAlign=middle;resizable=0;points=[];autosize=1;" parent="1" vertex="1">
          <mxGeometry x="305" y="610" width="120" height="20" as="geometry" />
        </mxCell>
        <mxCell id="BwiLSka21FznWN3lCEUR-11" value="" style="html=1;verticalAlign=bottom;endArrow=block;labelBackgroundColor=none;fontFamily=Verdana;fontSize=12;elbow=vertical;edgeStyle=orthogonalEdgeStyle;curved=1;entryX=1;entryY=0.286;entryPerimeter=0;" parent="1" edge="1">
          <mxGeometry relative="1" as="geometry">
            <mxPoint x="295.3800000000001" y="280" as="sourcePoint" />
            <mxPoint x="295" y="317.9200000000001" as="targetPoint" />
            <Array as="points">
              <mxPoint x="345.38" y="280" />
              <mxPoint x="345.38" y="318" />
            </Array>
          </mxGeometry>
        </mxCell>
        <mxCell id="BwiLSka21FznWN3lCEUR-4" value="&lt;b&gt;[User ist im gleichen &lt;br&gt;Raum oder DM]&lt;/b&gt;" style="text;html=1;align=center;verticalAlign=middle;resizable=0;points=[];autosize=1;" parent="1" vertex="1">
          <mxGeometry x="275" y="490" width="140" height="30" as="geometry" />
        </mxCell>
        <mxCell id="BwiLSka21FznWN3lCEUR-12" value="" style="endArrow=none;endFill=0;endSize=12;html=1;startArrow=open;startFill=0;entryX=0.1;entryY=0.8;entryDx=0;entryDy=0;entryPerimeter=0;exitX=1.3;exitY=0.8;exitDx=0;exitDy=0;exitPerimeter=0;" parent="1" source="7baba1c4bc27f4b0-9" target="7baba1c4bc27f4b0-13" edge="1">
          <mxGeometry width="160" relative="1" as="geometry">
            <mxPoint x="125" y="680" as="sourcePoint" />
            <mxPoint x="440" y="680" as="targetPoint" />
          </mxGeometry>
        </mxCell>
        <mxCell id="BwiLSka21FznWN3lCEUR-15" value="" style="endArrow=none;dashed=1;html=1;exitX=1.2;exitY=0.527;exitDx=0;exitDy=0;exitPerimeter=0;" parent="1" source="7baba1c4bc27f4b0-9" target="7baba1c4bc27f4b0-13" edge="1">
          <mxGeometry width="50" height="50" relative="1" as="geometry">
            <mxPoint x="270" y="560" as="sourcePoint" />
            <mxPoint x="320" y="510" as="targetPoint" />
            <Array as="points">
              <mxPoint x="320" y="480" />
            </Array>
          </mxGeometry>
        </mxCell>
        <mxCell id="BwiLSka21FznWN3lCEUR-16" value="&lt;b&gt;if&lt;/b&gt;" style="shape=umlFrame;whiteSpace=wrap;html=1;" parent="1" vertex="1">
          <mxGeometry x="130" y="340" width="330" height="250" as="geometry" />
        </mxCell>
        <mxCell id="CFHgOShg4OKigPbPgrVv-4" value="" style="endArrow=open;endFill=1;endSize=12;html=1;entryX=-0.1;entryY=0.076;entryDx=0;entryDy=0;entryPerimeter=0;" parent="1" target="7baba1c4bc27f4b0-9" edge="1">
          <mxGeometry width="160" relative="1" as="geometry">
            <mxPoint x="30" y="215" as="sourcePoint" />
            <mxPoint x="110" y="180" as="targetPoint" />
          </mxGeometry>
        </mxCell>
        <mxCell id="BwiLSka21FznWN3lCEUR-5" value="Nachricht an User&amp;nbsp;&lt;br&gt;senden" style="text;html=1;align=center;verticalAlign=middle;resizable=0;points=[];autosize=1;" parent="1" vertex="1">
          <mxGeometry x="300" y="530" width="110" height="30" as="geometry" />
        </mxCell>
        <mxCell id="7baba1c4bc27f4b0-8" value=":User" style="shape=umlLifeline;perimeter=lifelinePerimeter;whiteSpace=wrap;html=1;container=1;collapsible=0;recursiveResize=0;outlineConnect=0;rounded=1;shadow=0;comic=0;labelBackgroundColor=none;strokeWidth=1;fontFamily=Verdana;fontSize=12;align=center;" parent="1" vertex="1">
          <mxGeometry x="70" y="80" width="140" height="680" as="geometry" />
        </mxCell>
        <mxCell id="7baba1c4bc27f4b0-9" value="" style="html=1;points=[];perimeter=orthogonalPerimeter;rounded=0;shadow=0;comic=0;labelBackgroundColor=none;strokeWidth=1;fontFamily=Verdana;fontSize=12;align=center;" parent="7baba1c4bc27f4b0-8" vertex="1">
          <mxGeometry x="65" y="90" width="10" height="590" as="geometry" />
        </mxCell>
        <mxCell id="BwiLSka21FznWN3lCEUR-14" value="receiveAnswer(User,String)" style="text;html=1;align=center;verticalAlign=middle;resizable=0;points=[];autosize=1;" parent="7baba1c4bc27f4b0-8" vertex="1">
          <mxGeometry x="76" y="530" width="160" height="20" as="geometry" />
        </mxCell>
        <mxCell id="CFHgOShg4OKigPbPgrVv-1" value="whisper(string)" style="text;html=1;align=center;verticalAlign=middle;resizable=0;points=[];autosize=1;" parent="7baba1c4bc27f4b0-8" vertex="1">
          <mxGeometry x="-24" y="70" width="90" height="20" as="geometry" />
        </mxCell>
        <mxCell id="DB1RiOV4xSzmY_k622PU-1" value="" style="endArrow=open;endSize=12;dashed=1;html=1;entryX=-0.14;entryY=0.135;entryDx=0;entryDy=0;entryPerimeter=0;exitX=1.1;exitY=0.119;exitDx=0;exitDy=0;exitPerimeter=0;" parent="1" source="7baba1c4bc27f4b0-9" target="7baba1c4bc27f4b0-10" edge="1">
          <mxGeometry width="160" relative="1" as="geometry">
            <mxPoint x="120" y="251" as="sourcePoint" />
            <mxPoint x="280" y="230" as="targetPoint" />
          </mxGeometry>
        </mxCell>
        <mxCell id="CFHgOShg4OKigPbPgrVv-6" value="whisperAs(String, string)" style="text;html=1;align=center;verticalAlign=middle;resizable=0;points=[];autosize=1;" parent="1" vertex="1">
          <mxGeometry x="10" y="130" width="150" height="20" as="geometry" />
        </mxCell>
        <mxCell id="CFHgOShg4OKigPbPgrVv-7" value="whisperAs(Item, string)" style="text;html=1;align=center;verticalAlign=middle;resizable=0;points=[];autosize=1;" parent="1" vertex="1">
          <mxGeometry x="9" y="170" width="140" height="20" as="geometry" />
        </mxCell>
        <mxCell id="CFHgOShg4OKigPbPgrVv-8" value="&lt;font style=&quot;font-size: 11px&quot;&gt;&lt;b&gt;sd&lt;/b&gt; Whisper Chat&lt;/font&gt;" style="shape=umlFrame;whiteSpace=wrap;html=1;" parent="1" vertex="1">
          <mxGeometry x="10" y="30" width="550" height="750" as="geometry" />
        </mxCell>
      </root>
    </mxGraphModel>
  </diagram>
  <diagram id="QYvyoF0WIb2jROOfDwZI" name="Spiel">
    <mxGraphModel dx="746" dy="471" grid="1" gridSize="10" guides="1" tooltips="1" connect="1" arrows="1" fold="1" page="1" pageScale="1" pageWidth="827" pageHeight="1169" math="0" shadow="0">
      <root>
        <mxCell id="59vlZJudPUnmkUjhVP1Q-0" />
        <mxCell id="59vlZJudPUnmkUjhVP1Q-1" parent="59vlZJudPUnmkUjhVP1Q-0" />
      </root>
    </mxGraphModel>
  </diagram>
</mxfile>
